<?xml version="1.0" encoding="iso-8859-1"?>
<!-- Generator: Adobe Illustrator 19.0.0, SVG Export Plug-In . SVG Version: 6.00 Build 0)  -->
<svg version="1.1" id="Capa_1" xmlns="http://www.w3.org/2000/svg" xmlns:xlink="http://www.w3.org/1999/xlink" x="0px" y="0px"
	 viewBox="0 0 512.001 512.001" style="enable-background:new 0 0 512.001 512.001;" xml:space="preserve">
<g>
	<g>
		<path d="M446.711,167.043c-2.227-3.558-5.843-6.02-9.97-6.788c-4.125-0.768-8.386,0.228-11.744,2.747l-48.688,36.517
			c-6.109,4.582-7.801,13.021-3.93,19.603C384.735,240.135,391,262.636,391,286.001c0,74.991-60.561,136-135,136
			s-135-61.009-135-136c0-69.369,52.595-126.686,120-134.172v44.172c0,5.682,3.21,10.876,8.292,13.417
			c5.081,2.541,11.163,1.992,15.708-1.417l120-90c3.766-2.824,5.987-7.253,6-11.96c0.012-4.707-2.186-9.147-5.937-11.992l-120-91
			c-4.538-3.442-10.634-4.017-15.736-1.482C244.226,4.101,241,9.305,241,15.001V61.49C124.744,69.088,31,165.639,31,286.001
			c0,124.617,100.935,226,225,226s225-101.383,225-226C481,244.014,469.143,202.879,446.711,167.043z M256,482.001
			c-107.523,0-195-87.925-195-196c0-107.523,87.477-195,195-195c8.284,0,15-6.716,15-15v-30.8l80.088,60.734L271,166.001v-30
			c0-8.284-6.716-15-15-15c-90.981,0-165,74.019-165,165c0,91.02,73.862,166,165,166c91.014,0,165-74.865,165-166
			c0-24.4-5.503-47.962-16.378-70.217l24.771-18.579C443.57,224.704,451,255.093,451,286.001
			C451,394.076,363.523,482.001,256,482.001z"/>
	</g>
</g>
<g>
</g>
<g>
</g>
<g>
</g>
<g>
</g>
<g>
</g>
<g>
</g>
<g>
</g>
<g>
</g>
<g>
</g>
<g>
</g>
<g>
</g>
<g>
</g>
<g>
</g>
<g>
</g>
<g>
</g>
</svg>
