<svg id="Layer_1" enable-background="new 0 0 56.69 56.69" height="512" viewBox="0 0 56.69 56.69" width="512" xmlns="http://www.w3.org/2000/svg"><g><path d="m28.345 54.304c-12.17 0-22.071-9.9-22.071-22.07 0-11.835 9.363-21.525 21.071-22.05l.001-5.023c0-1.821 1.259-2.773 2.502-2.773.453 0 1.145.127 1.867.732l9.68 8.098c.74.619 1.165 1.51 1.165 2.443s-.425 1.823-1.165 2.443l-9.68 8.101c-.723.605-1.414.732-1.867.732-1.243 0-2.502-.953-2.502-2.773v-4.969c-7.847.516-14.072 7.064-14.072 15.039 0 8.31 6.761 15.07 15.071 15.07s15.072-6.761 15.072-15.07c0-1.082-.115-2.162-.343-3.21-.198-.913-.028-1.85.478-2.636s1.287-1.328 2.201-1.526c1.873-.406 3.763.837 4.163 2.678.332 1.534.501 3.113.501 4.694 0 12.169-9.901 22.07-22.072 22.07zm.001-42.143c-11.068 0-20.072 9.005-20.072 20.072 0 11.066 9.004 20.07 20.071 20.07 11.068 0 20.072-9.004 20.072-20.07 0-1.438-.153-2.876-.456-4.271-.175-.801-.976-1.32-1.786-1.147-.39.085-.725.317-.941.654s-.289.738-.204 1.13c.257 1.187.388 2.409.388 3.634 0 9.413-7.658 17.07-17.072 17.07-9.413 0-17.071-7.657-17.071-17.07s7.658-17.072 17.071-17.072h1l.001 7.002c0 .484.188.773.502.773.1 0 .308-.035.584-.266l9.68-8.102c.283-.237.447-.568.447-.908s-.163-.671-.448-.909l-9.68-8.099c-.276-.231-.484-.266-.584-.266-.314 0-.502.289-.502.773v7.001h-1z"/></g></svg>